<svg width="153" height="39" viewBox="0 0 153 39" fill="none" xmlns="http://www.w3.org/2000/svg">
<path d="M28.8893 20.5309H23.7149C19.195 20.5309 15.531 24.195 15.531 28.7148V33.8892C22.6647 33.3602 28.3603 27.6646 28.8893 20.5309Z" fill="url(#paint0_linear_2_22)"/>
<path d="M13.3583 33.8892V28.7148C13.3583 24.195 9.69422 20.5309 5.17438 20.5309H0C0.528934 27.6646 6.22459 33.3602 13.3583 33.8892Z" fill="url(#paint1_linear_2_22)"/>
<path d="M28.8893 18.3583C28.3603 11.2246 22.6647 5.52893 15.531 5V10.1744C15.531 14.6942 19.195 18.3583 23.7149 18.3583H28.8893Z" fill="url(#paint2_linear_2_22)"/>
<path d="M13.3583 5C6.22459 5.52893 0.528934 11.2246 0 18.3583H5.17438C9.69422 18.3583 13.3583 14.6942 13.3583 10.1744V5Z" fill="url(#paint3_linear_2_22)"/>
<path d="M9.797 19.4446C11.8049 18.4413 13.4414 16.8049 14.4446 14.797C15.4479 16.8049 17.0842 18.4413 19.0922 19.4446C17.0842 20.4478 15.4479 22.0842 14.4446 24.0922C13.4414 22.0842 11.8049 20.4478 9.797 19.4446Z" fill="#0CC045"/>
<path d="M36.8182 31V7.72727H39.6364V18.0909H52.0455V7.72727H54.8636V31H52.0455V20.5909H39.6364V31H36.8182ZM67.4602 31.3636C65.7784 31.3636 64.3277 30.9924 63.108 30.25C61.8958 29.5 60.9602 28.4545 60.3011 27.1136C59.6496 25.7652 59.3239 24.197 59.3239 22.4091C59.3239 20.6212 59.6496 19.0455 60.3011 17.6818C60.9602 16.3106 61.8769 15.2424 63.0511 14.4773C64.233 13.7045 65.6117 13.3182 67.1875 13.3182C68.0966 13.3182 68.9943 13.4697 69.8807 13.7727C70.767 14.0758 71.5739 14.5682 72.3011 15.25C73.0284 15.9242 73.608 16.8182 74.0398 17.9318C74.4716 19.0455 74.6875 20.4167 74.6875 22.0455V23.1818H61.233V20.8636H71.9602C71.9602 19.8788 71.7633 19 71.3693 18.2273C70.983 17.4545 70.4299 16.8447 69.7102 16.3977C68.9981 15.9508 68.1572 15.7273 67.1875 15.7273C66.1193 15.7273 65.1951 15.9924 64.4148 16.5227C63.642 17.0455 63.0473 17.7273 62.6307 18.5682C62.214 19.4091 62.0057 20.3106 62.0057 21.2727V22.8182C62.0057 24.1364 62.233 25.2538 62.6875 26.1705C63.1496 27.0795 63.7898 27.7727 64.608 28.25C65.4261 28.7197 66.3769 28.9545 67.4602 28.9545C68.1648 28.9545 68.8011 28.8561 69.3693 28.6591C69.9451 28.4545 70.4413 28.1515 70.858 27.75C71.2746 27.3409 71.5966 26.8333 71.8239 26.2273L74.4148 26.9545C74.142 27.8333 73.6837 28.6061 73.0398 29.2727C72.3958 29.9318 71.6004 30.447 70.6534 30.8182C69.7064 31.1818 68.642 31.3636 67.4602 31.3636ZM83.9034 31.4091C82.7973 31.4091 81.7936 31.2008 80.892 30.7841C79.9905 30.3598 79.2746 29.75 78.7443 28.9545C78.214 28.1515 77.9489 27.1818 77.9489 26.0455C77.9489 25.0455 78.1458 24.2348 78.5398 23.6136C78.9337 22.9848 79.4602 22.4924 80.1193 22.1364C80.7784 21.7803 81.5057 21.5152 82.3011 21.3409C83.1042 21.1591 83.911 21.0152 84.7216 20.9091C85.7822 20.7727 86.642 20.6705 87.3011 20.6023C87.9678 20.5265 88.4527 20.4015 88.7557 20.2273C89.0663 20.053 89.2216 19.75 89.2216 19.3182V19.2273C89.2216 18.1061 88.9148 17.2348 88.3011 16.6136C87.6951 15.9924 86.7746 15.6818 85.5398 15.6818C84.2595 15.6818 83.2557 15.9621 82.5284 16.5227C81.8011 17.0833 81.2898 17.6818 80.9943 18.3182L78.4489 17.4091C78.9034 16.3485 79.5095 15.5227 80.267 14.9318C81.0322 14.3333 81.8655 13.9167 82.767 13.6818C83.6761 13.4394 84.5701 13.3182 85.4489 13.3182C86.0095 13.3182 86.6534 13.3864 87.3807 13.5227C88.1155 13.6515 88.8239 13.9205 89.5057 14.3295C90.1951 14.7386 90.767 15.3561 91.2216 16.1818C91.6761 17.0076 91.9034 18.1136 91.9034 19.5V31H89.2216V28.6364H89.0852C88.9034 29.0152 88.6004 29.4205 88.1761 29.8523C87.7519 30.2841 87.1875 30.6515 86.483 30.9545C85.7784 31.2576 84.9186 31.4091 83.9034 31.4091ZM84.3125 29C85.3731 29 86.267 28.7917 86.9943 28.375C87.7292 27.9583 88.2822 27.4205 88.6534 26.7614C89.0322 26.1023 89.2216 25.4091 89.2216 24.6818V22.2273C89.108 22.3636 88.858 22.4886 88.4716 22.6023C88.0928 22.7083 87.6534 22.803 87.1534 22.8864C86.661 22.9621 86.1799 23.0303 85.7102 23.0909C85.2481 23.1439 84.8731 23.1894 84.5852 23.2273C83.8883 23.3182 83.2367 23.4659 82.6307 23.6705C82.0322 23.8674 81.5473 24.1667 81.1761 24.5682C80.8125 24.9621 80.6307 25.5 80.6307 26.1818C80.6307 27.1136 80.9754 27.8182 81.6648 28.2955C82.3617 28.7652 83.2443 29 84.3125 29ZM96.7983 31V13.5455H99.3892V16.1818H99.571C99.8892 15.3182 100.465 14.6174 101.298 14.0795C102.132 13.5417 103.071 13.2727 104.116 13.2727C104.313 13.2727 104.56 13.2765 104.855 13.2841C105.151 13.2917 105.374 13.303 105.526 13.3182V16.0455C105.435 16.0227 105.226 15.9886 104.901 15.9432C104.582 15.8902 104.245 15.8636 103.889 15.8636C103.041 15.8636 102.283 16.0417 101.616 16.3977C100.957 16.7462 100.435 17.2311 100.048 17.8523C99.6695 18.4659 99.4801 19.1667 99.4801 19.9545V31H96.7983ZM108.705 31V13.5455H111.295V16.2727H111.523C111.886 15.3409 112.473 14.6174 113.284 14.1023C114.095 13.5795 115.068 13.3182 116.205 13.3182C117.356 13.3182 118.314 13.5795 119.08 14.1023C119.852 14.6174 120.455 15.3409 120.886 16.2727H121.068C121.515 15.3712 122.186 14.6553 123.08 14.125C123.973 13.5871 125.045 13.3182 126.295 13.3182C127.856 13.3182 129.133 13.8068 130.125 14.7841C131.117 15.7538 131.614 17.2652 131.614 19.3182V31H128.932V19.3182C128.932 18.0303 128.58 17.1098 127.875 16.5568C127.17 16.0038 126.341 15.7273 125.386 15.7273C124.159 15.7273 123.208 16.0985 122.534 16.8409C121.86 17.5758 121.523 18.5076 121.523 19.6364V31H118.795V19.0455C118.795 18.053 118.473 17.2538 117.83 16.6477C117.186 16.0341 116.356 15.7273 115.341 15.7273C114.644 15.7273 113.992 15.9129 113.386 16.2841C112.788 16.6553 112.303 17.1705 111.932 17.8295C111.568 18.4811 111.386 19.2348 111.386 20.0909V31H108.705ZM143.835 31.3636C142.153 31.3636 140.703 30.9924 139.483 30.25C138.271 29.5 137.335 28.4545 136.676 27.1136C136.025 25.7652 135.699 24.197 135.699 22.4091C135.699 20.6212 136.025 19.0455 136.676 17.6818C137.335 16.3106 138.252 15.2424 139.426 14.4773C140.608 13.7045 141.987 13.3182 143.562 13.3182C144.472 13.3182 145.369 13.4697 146.256 13.7727C147.142 14.0758 147.949 14.5682 148.676 15.25C149.403 15.9242 149.983 16.8182 150.415 17.9318C150.847 19.0455 151.062 20.4167 151.062 22.0455V23.1818H137.608V20.8636H148.335C148.335 19.8788 148.138 19 147.744 18.2273C147.358 17.4545 146.805 16.8447 146.085 16.3977C145.373 15.9508 144.532 15.7273 143.562 15.7273C142.494 15.7273 141.57 15.9924 140.79 16.5227C140.017 17.0455 139.422 17.7273 139.006 18.5682C138.589 19.4091 138.381 20.3106 138.381 21.2727V22.8182C138.381 24.1364 138.608 25.2538 139.062 26.1705C139.525 27.0795 140.165 27.7727 140.983 28.25C141.801 28.7197 142.752 28.9545 143.835 28.9545C144.54 28.9545 145.176 28.8561 145.744 28.6591C146.32 28.4545 146.816 28.1515 147.233 27.75C147.65 27.3409 147.972 26.8333 148.199 26.2273L150.79 26.9545C150.517 27.8333 150.059 28.6061 149.415 29.2727C148.771 29.9318 147.975 30.447 147.028 30.8182C146.081 31.1818 145.017 31.3636 143.835 31.3636Z" fill="black"/>
<defs>
<linearGradient id="paint0_linear_2_22" x1="22.2101" y1="20.5309" x2="22.2101" y2="33.8892" gradientUnits="userSpaceOnUse">
<stop stop-color="#23C268"/>
<stop offset="1" stop-color="#0E9A39"/>
</linearGradient>
<linearGradient id="paint1_linear_2_22" x1="6.67914" y1="20.5309" x2="6.67914" y2="33.8892" gradientUnits="userSpaceOnUse">
<stop stop-color="#23C268"/>
<stop offset="1" stop-color="#0E9A39"/>
</linearGradient>
<linearGradient id="paint2_linear_2_22" x1="22.2101" y1="5" x2="22.2101" y2="18.3583" gradientUnits="userSpaceOnUse">
<stop stop-color="#23C268"/>
<stop offset="1" stop-color="#0E9A39"/>
</linearGradient>
<linearGradient id="paint3_linear_2_22" x1="6.67914" y1="5" x2="6.67914" y2="18.3583" gradientUnits="userSpaceOnUse">
<stop stop-color="#23C268"/>
<stop offset="1" stop-color="#0E9A39"/>
</linearGradient>
</defs>
</svg>
