<svg width="156" height="39" viewBox="0 0 156 39" fill="none" xmlns="http://www.w3.org/2000/svg">
<path d="M28.8893 20.5309H23.7149C19.195 20.5309 15.531 24.195 15.531 28.7148V33.8892C22.6647 33.3602 28.3603 27.6646 28.8893 20.5309Z" fill="url(#paint0_linear_2_22)"/>
<path d="M13.3583 33.8892V28.7148C13.3583 24.195 9.69422 20.5309 5.17438 20.5309H0C0.528934 27.6646 6.22459 33.3602 13.3583 33.8892Z" fill="url(#paint1_linear_2_22)"/>
<path d="M28.8893 18.3583C28.3603 11.2246 22.6647 5.52893 15.531 5V10.1744C15.531 14.6942 19.195 18.3583 23.7149 18.3583H28.8893Z" fill="url(#paint2_linear_2_22)"/>
<path d="M13.3583 5C6.22459 5.52893 0.528934 11.2246 0 18.3583H5.17438C9.69422 18.3583 13.3583 14.6942 13.3583 10.1744V5Z" fill="url(#paint3_linear_2_22)"/>
<path d="M9.797 19.4446C11.8049 18.4413 13.4414 16.8049 14.4446 14.797C15.4479 16.8049 17.0842 18.4413 19.0922 19.4446C17.0842 20.4478 15.4479 22.0842 14.4446 24.0922C13.4414 22.0842 11.8049 20.4478 9.797 19.4446Z" fill="#0CC045"/>
<path d="M36.2955 31V7.72727H40.5114V17.5795H51.2955V7.72727H55.5227V31H51.2955V21.1136H40.5114V31H36.2955ZM67.6534 31.3409C65.9034 31.3409 64.392 30.9773 63.1193 30.25C61.8542 29.5152 60.8807 28.4773 60.1989 27.1364C59.517 25.7879 59.1761 24.2008 59.1761 22.375C59.1761 20.5795 59.517 19.0038 60.1989 17.6477C60.8883 16.2841 61.8504 15.2235 63.0852 14.4659C64.3201 13.7008 65.7708 13.3182 67.4375 13.3182C68.5133 13.3182 69.5284 13.4924 70.483 13.8409C71.4451 14.1818 72.2936 14.7121 73.0284 15.4318C73.7708 16.1515 74.3542 17.0682 74.7784 18.1818C75.2027 19.2879 75.4148 20.6061 75.4148 22.1364V23.3977H61.108V20.625H71.4716C71.464 19.8371 71.2936 19.1364 70.9602 18.5227C70.6269 17.9015 70.161 17.4129 69.5625 17.0568C68.9716 16.7008 68.2822 16.5227 67.4943 16.5227C66.6534 16.5227 65.9148 16.7273 65.2784 17.1364C64.642 17.5379 64.1458 18.0682 63.7898 18.7273C63.4413 19.3788 63.2633 20.0947 63.2557 20.875V23.2955C63.2557 24.3106 63.4413 25.1818 63.8125 25.9091C64.1837 26.6288 64.7027 27.1818 65.3693 27.5682C66.036 27.947 66.8163 28.1364 67.7102 28.1364C68.3087 28.1364 68.8504 28.053 69.3352 27.8864C69.8201 27.7121 70.2405 27.4583 70.5966 27.125C70.9527 26.7917 71.2216 26.3788 71.4034 25.8864L75.2443 26.3182C75.0019 27.3333 74.5398 28.2197 73.858 28.9773C73.1837 29.7273 72.3201 30.3106 71.267 30.7273C70.214 31.1364 69.0095 31.3409 67.6534 31.3409ZM83.9176 31.3523C82.8116 31.3523 81.8153 31.1553 80.929 30.7614C80.0502 30.3598 79.3532 29.7689 78.8381 28.9886C78.3305 28.2083 78.0767 27.2462 78.0767 26.1023C78.0767 25.1174 78.2585 24.303 78.6222 23.6591C78.9858 23.0152 79.482 22.5 80.1108 22.1136C80.7396 21.7273 81.4479 21.4356 82.2358 21.2386C83.0313 21.0341 83.8532 20.8864 84.7017 20.7955C85.7244 20.6894 86.554 20.5947 87.1903 20.5114C87.8267 20.4205 88.2888 20.2841 88.5767 20.1023C88.8722 19.9129 89.0199 19.6212 89.0199 19.2273V19.1591C89.0199 18.303 88.7661 17.6402 88.2585 17.1705C87.7509 16.7008 87.0199 16.4659 86.0653 16.4659C85.0578 16.4659 84.2585 16.6856 83.6676 17.125C83.0843 17.5644 82.6903 18.0833 82.4858 18.6818L78.6449 18.1364C78.9479 17.0758 79.4479 16.1894 80.1449 15.4773C80.8419 14.7576 81.6941 14.2197 82.7017 13.8636C83.7093 13.5 84.8229 13.3182 86.0426 13.3182C86.8835 13.3182 87.7206 13.4167 88.554 13.6136C89.3873 13.8106 90.1487 14.1364 90.8381 14.5909C91.5275 15.0379 92.0805 15.6477 92.4972 16.4205C92.9214 17.1932 93.1335 18.1591 93.1335 19.3182V31H89.179V28.6023H89.0426C88.7926 29.0871 88.4403 29.5417 87.9858 29.9659C87.5388 30.3826 86.9744 30.7197 86.2926 30.9773C85.6184 31.2273 84.8267 31.3523 83.9176 31.3523ZM84.9858 28.3295C85.8116 28.3295 86.5275 28.1667 87.1335 27.8409C87.7396 27.5076 88.2055 27.0682 88.5312 26.5227C88.8646 25.9773 89.0312 25.3826 89.0312 24.7386V22.6818C88.9025 22.7879 88.6828 22.8864 88.3722 22.9773C88.0691 23.0682 87.7282 23.1477 87.3494 23.2159C86.9706 23.2841 86.5956 23.3447 86.2244 23.3977C85.8532 23.4508 85.5313 23.4962 85.2585 23.5341C84.6449 23.6174 84.0956 23.7538 83.6108 23.9432C83.1259 24.1326 82.7434 24.3977 82.4631 24.7386C82.1828 25.072 82.0426 25.5038 82.0426 26.0341C82.0426 26.7917 82.3191 27.3636 82.8722 27.75C83.4252 28.1364 84.1297 28.3295 84.9858 28.3295ZM97.2699 31V13.5455H101.259V16.4545H101.44C101.759 15.447 102.304 14.6705 103.077 14.125C103.857 13.572 104.747 13.2955 105.747 13.2955C105.974 13.2955 106.228 13.3068 106.509 13.3295C106.796 13.3447 107.035 13.3712 107.224 13.4091V17.1932C107.05 17.1326 106.774 17.0795 106.395 17.0341C106.024 16.9811 105.664 16.9545 105.315 16.9545C104.565 16.9545 103.891 17.1174 103.293 17.4432C102.702 17.7614 102.236 18.2045 101.895 18.7727C101.554 19.3409 101.384 19.9962 101.384 20.7386V31H97.2699ZM109.957 31V13.5455H113.889V16.5114H114.094C114.457 15.5114 115.06 14.7311 115.901 14.1705C116.741 13.6023 117.745 13.3182 118.912 13.3182C120.094 13.3182 121.09 13.6061 121.901 14.1818C122.719 14.75 123.295 15.5265 123.628 16.5114H123.81C124.196 15.5417 124.848 14.7689 125.764 14.1932C126.688 13.6098 127.783 13.3182 129.048 13.3182C130.654 13.3182 131.965 13.8258 132.98 14.8409C133.995 15.8561 134.503 17.3371 134.503 19.2841V31H130.378V19.9205C130.378 18.8371 130.09 18.0455 129.514 17.5455C128.938 17.0379 128.234 16.7841 127.401 16.7841C126.408 16.7841 125.632 17.0947 125.071 17.7159C124.518 18.3295 124.241 19.1288 124.241 20.1136V31H120.207V19.75C120.207 18.8485 119.935 18.1288 119.389 17.5909C118.851 17.053 118.147 16.7841 117.276 16.7841C116.685 16.7841 116.147 16.9356 115.662 17.2386C115.177 17.5341 114.791 17.9545 114.503 18.5C114.215 19.0379 114.071 19.6667 114.071 20.3864V31H109.957ZM146.403 31.3409C144.653 31.3409 143.142 30.9773 141.869 30.25C140.604 29.5152 139.631 28.4773 138.949 27.1364C138.267 25.7879 137.926 24.2008 137.926 22.375C137.926 20.5795 138.267 19.0038 138.949 17.6477C139.638 16.2841 140.6 15.2235 141.835 14.4659C143.07 13.7008 144.521 13.3182 146.188 13.3182C147.263 13.3182 148.278 13.4924 149.233 13.8409C150.195 14.1818 151.044 14.7121 151.778 15.4318C152.521 16.1515 153.104 17.0682 153.528 18.1818C153.953 19.2879 154.165 20.6061 154.165 22.1364V23.3977H139.858V20.625H150.222C150.214 19.8371 150.044 19.1364 149.71 18.5227C149.377 17.9015 148.911 17.4129 148.312 17.0568C147.722 16.7008 147.032 16.5227 146.244 16.5227C145.403 16.5227 144.665 16.7273 144.028 17.1364C143.392 17.5379 142.896 18.0682 142.54 18.7273C142.191 19.3788 142.013 20.0947 142.006 20.875V23.2955C142.006 24.3106 142.191 25.1818 142.562 25.9091C142.934 26.6288 143.453 27.1818 144.119 27.5682C144.786 27.947 145.566 28.1364 146.46 28.1364C147.059 28.1364 147.6 28.053 148.085 27.8864C148.57 27.7121 148.991 27.4583 149.347 27.125C149.703 26.7917 149.972 26.3788 150.153 25.8864L153.994 26.3182C153.752 27.3333 153.29 28.2197 152.608 28.9773C151.934 29.7273 151.07 30.3106 150.017 30.7273C148.964 31.1364 147.759 31.3409 146.403 31.3409Z" fill="black"/>
<defs>
<linearGradient id="paint0_linear_2_22" x1="22.2101" y1="20.5309" x2="22.2101" y2="33.8892" gradientUnits="userSpaceOnUse">
<stop stop-color="#23C268"/>
<stop offset="1" stop-color="#0E9A39"/>
</linearGradient>
<linearGradient id="paint1_linear_2_22" x1="6.67914" y1="20.5309" x2="6.67914" y2="33.8892" gradientUnits="userSpaceOnUse">
<stop stop-color="#23C268"/>
<stop offset="1" stop-color="#0E9A39"/>
</linearGradient>
<linearGradient id="paint2_linear_2_22" x1="22.2101" y1="5" x2="22.2101" y2="18.3583" gradientUnits="userSpaceOnUse">
<stop stop-color="#23C268"/>
<stop offset="1" stop-color="#0E9A39"/>
</linearGradient>
<linearGradient id="paint3_linear_2_22" x1="6.67914" y1="5" x2="6.67914" y2="18.3583" gradientUnits="userSpaceOnUse">
<stop stop-color="#23C268"/>
<stop offset="1" stop-color="#0E9A39"/>
</linearGradient>
</defs>
</svg>
